<?xml version="1.0" encoding="UTF-8" standalone="no"?>
<!-- Created with (https://www.ozhuyesu.com/) -->

<svg
   version="1.1"
   id="svg1"
   width="301.1969"
   height="301.1969"
   viewBox="0 0 301.1969 301.1969"
   xmlns="http://www.w3.org/2000/svg"
   xmlns:svg="http://www.w3.org/2000/svg">
  <defs
     id="defs1" />
  <g
     id="g1"
     transform="translate(-4.4015594,-4.4015594)">
    <path
       id="path4"
       style="display:inline;fill:#0d67d9;fill-opacity:1;stroke:#0d67d9;stroke-width:0.506457;stroke-linecap:round;stroke-linejoin:round;stroke-dasharray:none;stroke-dashoffset:0;stroke-opacity:1;paint-order:normal"
       d="m 157.64113,20.523949 c -3.65146,0 -4.85793,0.152562 -4.71038,0.595232 0.1091,0.327295 0.73014,0.72036 1.37964,0.873542 1.0416,0.245654 1.22614,0.645129 1.56584,3.383237 0.21182,1.707399 0.27011,3.403704 0.12974,3.769492 -0.19592,0.510578 -1.30358,0.632457 -4.76683,0.524919 l -4.51032,-0.139648 -0.14361,-3.537742 -0.14361,-3.536748 1.48264,-0.297119 c 0.86405,-0.172811 1.48165,-0.601615 1.48165,-1.029036 0,-0.576191 -0.39044,-0.668987 -1.82532,-0.431816 -1.00404,0.165955 -3.19446,0.305074 -4.86786,0.308016 -3.15434,0.0056 -4.03165,0.62447 -1.70945,1.207308 0.73361,0.184124 1.49719,0.591783 1.69658,0.90523 0.19939,0.313452 0.36635,3.975775 0.37041,8.139179 0.008,7.848451 -0.20274,8.738361 -2.06599,8.738371 -0.49774,0 -0.76963,0.219538 -0.60415,0.487282 0.33304,0.538877 5.58745,0.658904 7.9708,0.182235 1.87961,-0.375923 1.97748,-1.039482 0.18323,-1.245933 -1.3271,-0.152701 -1.3402,-0.188775 -1.48066,-4.188439 l -0.14163,-4.034923 4.52319,0.140641 4.52221,0.140636 0.14262,3.78039 0.14262,3.78039 -1.48165,0.29613 c -0.81457,0.162914 -1.48067,0.495865 -1.48067,0.739834 0,0.606589 9.22341,0.289851 9.37323,-0.321882 0.0656,-0.267745 -0.4532,-0.552676 -1.15284,-0.63386 -1.17601,-0.136457 -1.29505,-0.371513 -1.58168,-3.113847 -0.39379,-3.767686 -0.40359,-12.723934 -0.0149,-13.736961 0.16252,-0.42351 0.82014,-0.770537 1.46086,-0.770537 0.64071,0 1.16472,-0.21855 1.16472,-0.486293 0,-0.292347 -1.96059,-0.487277 -4.90847,-0.487277 z m 11.68781,0.524915 c -1.00773,-0.04194 -1.4242,0.10945 -1.4242,0.448658 0,0.267742 0.44453,0.487282 0.98842,0.487282 1.44498,0 1.65272,1.101375 0.99338,5.275901 -0.32402,2.051545 -0.80489,5.114211 -1.06766,6.806088 -0.73716,4.746399 -1.11437,5.443282 -2.94745,5.443282 -2.68538,0 -0.89561,0.84139 3.53179,1.660916 2.29668,0.425123 4.32246,0.77252 4.5024,0.77252 0.73901,0 0.2534,-0.775382 -0.76757,-1.225136 -0.9488,-0.417963 -1.08733,-0.822105 -1.03002,-3.024708 0.15106,-5.806062 1.70951,-6.628201 3.93786,-2.077873 1.12993,2.307336 3.39618,6.296444 3.96956,6.987327 0.31614,0.38093 1.82795,0.847431 3.35946,1.036958 1.53152,0.189523 3.08566,0.597343 3.45355,0.906221 0.3679,0.308873 2.33978,1.146656 4.38157,1.86197 2.0418,0.715311 3.98549,1.318036 4.32016,1.339029 0.98694,0.06187 0.69549,-0.79939 -0.36447,-1.076575 -1.44196,-0.377087 -1.25028,-1.722318 1.36677,-9.604977 l 2.33934,-7.048735 1.55197,-0.0287 c 2.50537,-0.04635 1.59282,-0.822336 -2.73155,-2.323497 -4.01714,-1.394515 -5.72034,-1.380149 -3.62192,0.03068 0.60242,0.405002 1.09539,1.103522 1.09539,1.551972 0,0.448444 -0.87616,3.396757 -1.94714,6.551549 -1.07097,3.154795 -1.94714,5.975077 -1.94714,6.267303 0,0.900675 -1.56041,2.31161 -2.55624,2.31161 -1.18552,0 -3.59565,-1.330227 -5.29176,-2.920715 -1.44925,-1.358832 -4.32214,-6.353182 -4.32214,-7.513236 0,-0.412491 0.71152,-1.050998 1.58168,-1.419251 3.62991,-1.53618 4.57936,-4.99863 2.08481,-7.602374 -1.592,-1.661696 -2.78582,-2.1073 -8.467,-3.158414 -2.36545,-0.437647 -3.96411,-0.673135 -4.97185,-0.715071 z m -37.60283,0.949802 c -0.19693,0.003 -0.33178,0.23072 -0.33178,0.716066 0,0.562666 -0.63006,0.730923 -2.74344,0.730923 -3.68233,0 -6.13107,0.801764 -8.4145,2.756303 -5.96238,5.103572 -4.88062,13.999834 2.10065,17.277675 3.61407,1.696801 9.52602,0.453297 12.28601,-2.583977 1.49573,-1.645997 2.69877,-4.196086 2.14226,-4.54003 -0.2565,-0.158521 -0.9056,0.573791 -1.44303,1.627237 -1.38603,2.716856 -3.62221,3.960646 -7.12004,3.960646 -3.82131,0 -5.72627,-1.289718 -7.03487,-4.763865 -1.22836,-3.261135 -1.23261,-6.071088 -0.01,-8.590803 1.17998,-2.433657 3.19482,-3.449722 6.76944,-3.412948 2.39099,0.02459 2.7633,0.186645 4.30135,1.864942 0.92617,1.010628 1.79693,1.72496 1.93426,1.587625 0.24478,-0.244777 -0.39195,-2.649835 -1.40341,-5.304628 -0.32552,-0.85441 -0.74517,-1.329907 -1.03299,-1.325166 z m 44.26531,1.933277 c 3.47792,0 5.36355,3.982104 2.95637,6.243534 -1.21741,1.143689 -4.86938,1.502256 -5.46607,0.536799 -0.30697,-0.496683 0.0401,-4.117051 0.5685,-5.928581 0.17513,-0.600423 0.74788,-0.851752 1.9412,-0.851752 z m 33.94327,8.719553 c -1.0496,-0.0082 -2.08894,0.257586 -3.13068,0.796293 -3.11214,1.609349 -2.94293,5.221313 0.44073,9.409863 1.21618,1.505533 2.35827,2.846272 2.53842,2.980142 1.48329,1.10225 1.84244,4.217234 0.59524,5.163987 -2.90786,2.20738 -7.9104,-1.253771 -7.9104,-5.472997 0,-1.168733 -0.17867,-2.124423 -0.39715,-2.124423 -0.21847,0 -0.86581,1.149603 -1.43807,2.555253 -1.4982,3.680056 -1.51971,4.043163 -0.22384,3.862595 0.66311,-0.0924 1.83367,0.415118 2.92171,1.267721 0.99814,0.782154 2.47205,1.65569 3.27528,1.941198 1.89711,0.674321 2.11209,0.679637 4.17358,0.106966 1.9083,-0.530104 3.55963,-2.060223 4.08247,-3.78336 0.46618,-1.536415 -1.09681,-4.53409 -4.36077,-8.362015 -3.16359,-3.710203 -3.50032,-5.405199 -1.25881,-6.333659 1.18249,-0.489803 1.71418,-0.44844 3.18515,0.249579 2.04366,0.969777 3.18416,2.86017 3.18416,5.278877 0,2.748593 0.72708,2.420477 2.11156,-0.950792 0.71243,-1.734807 1.29545,-3.263427 1.29545,-3.3971 0,-0.13367 -0.513,-0.113877 -1.13996,0.04356 -0.79024,0.198338 -1.57378,-0.07564 -2.55526,-0.892354 -1.86205,-1.549471 -3.63947,-2.325617 -5.38881,-2.339344 z M 98.59002,33.378459 c -0.780452,0.02743 -6.140532,3.296044 -6.140532,3.787322 0,0.236962 0.45579,0.187841 1.0122,-0.109937 0.5564,-0.297778 1.28197,-0.43778 1.61238,-0.310988 0.72018,0.276359 5.651272,8.49575 5.651272,9.419774 0,0.750076 -1.40925,0.843967 -3.019752,0.201051 -0.61502,-0.245516 -4.01096,-1.380943 -7.54691,-2.52257 l -6.42973,-2.075896 -1.6837,0.907218 c -0.92603,0.498702 -2.15174,1.260497 -2.72461,1.692608 -1.00113,0.755172 -0.94328,0.784953 1.49849,0.763607 l 2.54039,-0.02277 3.55854,6.085068 c 1.95712,3.346787 3.56431,6.5066 3.57141,7.021009 0.007,0.514401 -0.34921,1.335687 -0.79233,1.825322 -0.44313,0.489629 -0.65272,0.890377 -0.46549,0.890377 0.63759,0 6.62584,-3.613546 6.62584,-3.99828 0,-0.547244 -0.8602,-0.474666 -1.21722,0.103 -0.78904,1.276694 -2.21084,0.37332 -3.8715,-2.460172 -0.94993,-1.620804 -0.9334,-1.717258 -1.7942,-3.251565 -0.79945,-1.424971 -0.47271,-0.908983 -0.90665,-1.589548 -0.99394,-1.558836 -1.25813,-2.921706 -0.23769,-2.921706 0.64328,0 4.95169,1.264685 14.936342,4.383547 1.52411,0.476081 2.86984,0.765946 2.99103,0.644754 0.27093,-0.270922 -2.39256,-4.444798 -2.6949,-4.947091 -0.0267,-0.04442 -0.26136,-0.401275 -0.39022,-0.656639 -0.12261,-0.242986 -1.20448,-2.622608 -2.67707,-5.22341 -1.47259,-2.600801 -2.678072,-4.97344 -2.678072,-5.271943 0,-0.298503 0.35488,-0.897619 0.788372,-1.33111 0.43349,-0.433489 0.68734,-0.8884 0.56453,-1.011206 -0.0151,-0.01506 -0.0418,-0.02115 -0.0802,-0.01983 z m 129.15023,7.928217 -1.66487,1.612385 c -1.77747,1.722759 -1.84894,2.93174 -0.10102,1.70746 0.57748,-0.404485 1.37151,-0.735872 1.76391,-0.735872 1.1239,0 3.93036,2.109956 3.93391,2.957358 0.003,0.696695 -1.10618,2.282144 -7.05468,10.080378 -1.86596,2.446182 -2.02833,2.544471 -3.89429,2.337366 l -1.94714,-0.216903 1.44995,1.061718 c 0.7976,0.583939 2.44018,1.854587 3.65065,2.823655 2.02119,1.6181 3.40126,2.164245 2.04717,0.810155 -0.31683,-0.316829 -0.57641,-1.057488 -0.57641,-1.646061 0,-1.143856 8.36286,-12.242692 9.57526,-12.707926 0.41458,-0.159089 1.42641,0.415088 2.42155,1.373694 1.52322,1.467288 1.67771,1.844567 1.42223,3.47138 -0.15771,1.004036 -0.17747,1.825323 -0.0446,1.825323 0.13324,0 0.82071,-0.874085 1.5282,-1.943181 1.05672,-1.596808 1.17858,-2.075414 0.67843,-2.678064 -0.33486,-0.403491 -0.91077,-0.732901 -1.2796,-0.732901 -0.36883,0 -0.67051,-0.182724 -0.67051,-0.405078 0,-0.222358 -1.04083,-1.144241 -2.3126,-2.049152 -1.27178,-0.90491 -2.53115,-1.884956 -2.7989,-2.177912 -0.26774,-0.29295 -1.75598,-1.485583 -3.30697,-2.650331 z m -72.38795,6.000881 c -12.22092,0.01136 -18.62482,0.874297 -30.05988,4.04978 -4.00348,1.111747 -5.32996,1.562062 -8.25902,2.803847 -0.53548,0.227024 -2.11465,0.850079 -3.50901,1.384592 -6.78002,2.599044 -18.328472,9.428525 -25.363372,14.999735 -10.34882,8.195639 -20.9688,20.528956 -27.03616,31.396929 -0.71001,1.27178 -1.81343,3.24367 -2.45127,4.38157 -4.27554,7.62763 -8.97214,22.35533 -10.90637,34.1978 -1.08311,6.6313 -1.05728,23.86626 0.0465,30.66898 2.58929,15.95749 7.88749,30.05065 16.19615,43.08177 6.2856,9.85822 14.04636,18.51661 23.32807,26.02793 1.87421,1.51672 3.79408,3.07252 4.26569,3.45653 0.47162,0.384 1.05507,0.69824 1.29744,0.69824 0.24237,0 0.51391,0.19657 0.60315,0.43677 0.43489,1.17045 18.779672,11.24608 20.475712,11.24608 0.3674,0 0.87569,0.19626 1.13005,0.43578 0.52581,0.49515 6.74473,2.76876 9.40591,3.4387 0.97164,0.24461 3.40774,0.8885 5.41357,1.43114 3.2718,0.88511 11.03988,2.20534 15.58209,2.64835 8.59609,0.8384 24.69099,-0.0971 32.61613,-1.89564 5.20632,-1.18154 13.70145,-3.82372 17.52429,-5.45022 5.70234,-2.42616 11.01729,-5.05781 14.82541,-7.34189 7.34106,-4.40311 10.41441,-6.67261 18.2463,-13.46856 3.24811,-2.81848 9.13882,-9.05817 11.7195,-12.41378 0.9266,-1.20485 1.94578,-2.46434 2.26506,-2.7989 1.52116,-1.59393 8.1182,-12.69899 10.77169,-18.13338 9.59107,-19.64267 13.04793,-43.61506 9.30191,-64.50232 -1.6067,-8.9587 -4.56975,-18.81237 -7.90445,-26.28742 -9.26425,-20.76675 -26.15815,-39.518833 -45.19035,-50.160209 -4.27698,-2.391366 -13.98754,-7.038832 -14.70657,-7.038832 -0.32651,0 -0.80241,-0.193748 -1.05677,-0.42984 -0.60189,-0.558681 -6.96689,-2.555993 -13.11895,-4.117128 -7.89215,-2.002692 -14.87455,-2.756242 -25.4525,-2.746403 z m -80.096302,0.698241 c -0.41373,-0.0041 -2.00551,1.276115 -5.38088,4.314217 -1.15428,1.038934 -1.2536,1.238362 -0.40904,0.825009 2.00315,-0.980396 2.20676,-0.805993 7.89256,6.793213 0.9371,1.252454 2.19647,2.795957 2.79889,3.429783 1.20478,1.267587 1.43525,3.326149 0.48728,4.356808 -0.68292,0.7425 2.98785,-1.813836 5.22539,-3.638764 l 1.45393,-1.185519 -1.73718,0.282266 c -1.86346,0.302397 -1.60841,0.559309 -8.46403,-8.520481 -0.53101,-0.703286 -1.35229,-1.703438 -1.82532,-2.222475 -0.98981,-1.086093 -1.12131,-2.738311 -0.28425,-3.575373 0.31683,-0.316829 0.46247,-0.690376 0.32288,-0.829963 -0.0185,-0.01851 -0.0452,-0.02835 -0.0802,-0.0287 z m 75.273012,7.011099 c 8.82094,-0.436634 17.67361,0.170358 25.65158,1.865932 9.26569,1.969259 19.11718,5.355052 19.38229,6.661487 0.1318,0.649586 -0.68568,0.780946 -5.59779,0.898297 -5.43432,0.12983 -5.7611,0.194485 -5.89986,1.1667 -0.12732,0.892025 0.1543,1.06296 2.11155,1.283569 1.24198,0.139992 2.51324,0.509184 2.82464,0.82006 0.38934,0.388693 0.61122,4.131219 0.71211,11.981956 0.1262,9.820819 0.0463,11.416439 -0.57345,11.416439 -0.83221,0 -0.95588,-0.11768 -5.17092,-4.89658 -1.74033,-1.97313 -4.45826,-5.0194 -6.03951,-6.769438 -5.00544,-5.539725 -6.77408,-7.506252 -10.21309,-11.356021 l -3.35254,-3.752657 h -6.22867 c -5.79265,0 -6.25163,0.06832 -6.53769,0.969605 -0.44849,1.41307 0.0879,1.951107 1.94318,1.951107 2.08255,0 4.07777,0.752452 5.47894,2.065005 1.09126,1.022337 1.0954,1.08173 1.0954,16.49129 0,15.429562 -0.002,15.466822 -1.08153,16.222882 -0.59506,0.4168 -1.90932,0.75767 -2.92071,0.75767 -1.63696,0 -1.83919,0.13384 -1.83919,1.21721 v 1.21721 h 8.03221 8.03221 v -1.15383 c 0,-1.00621 -0.27945,-1.18511 -2.1898,-1.40043 -3.77188,-0.42515 -3.65163,0.0145 -3.65163,-13.326941 0,-11.326504 0.0419,-11.867069 0.92306,-11.867069 0.50775,0 1.63163,0.821286 2.49781,1.825322 0.86619,1.004036 2.60239,2.921025 3.85764,4.259745 1.25526,1.338711 6.1881,6.81528 10.96184,12.17014 6.8732,7.709893 8.963,9.768023 10.04076,9.887243 l 1.36082,0.15054 0.14856,-18.789028 c 0.16172,-20.475327 0.0462,-19.702854 2.94746,-19.719029 l 1.33804,-0.0079 v 21.885048 21.885049 l -12.29097,10.50228 c -6.76051,5.77657 -12.95775,11.0985 -13.77063,11.82647 -0.81289,0.72797 -2.55261,2.20035 -3.86656,3.27132 -1.31395,1.07097 -3.38743,2.83241 -4.60738,3.91409 -1.21995,1.08168 -3.56178,3.10745 -5.20459,4.5024 -1.64282,1.39495 -3.39516,2.52249 -3.89429,2.50474 -0.76192,-0.0271 -5.56476,-3.8409 -12.11666,-9.62182 -0.8099,-0.7146 -3.00033,-2.61061 -4.86785,-4.21319 -1.86753,-1.60258 -3.50489,-3.03431 -3.63876,-3.18119 -0.13387,-0.14689 -3.74832,-3.20677 -8.03221,-6.80015 -4.28389,-3.59337 -9.37725,-7.93924 -11.31839,-9.65747 l -3.52981,-3.12374 v -2.98313 -2.9831 l 17.44703,0.14461 c 13.84417,0.11451 17.55028,0.0135 17.94917,-0.48729 0.27649,-0.34711 1.21897,-2.60277 2.09471,-5.012463 0.87574,-2.409679 1.69402,-4.65499 1.81839,-4.98967 0.15041,-0.40476 -0.28047,-0.60811 -1.28654,-0.60811 -0.83187,0 -1.51235,0.19901 -1.51235,0.442711 0,0.914649 -3.95925,5.40733 -5.44032,6.173222 -1.19341,0.61714 -3.10368,0.81227 -8.47294,0.86363 -3.81298,0.0365 -7.11642,-0.11635 -7.34091,-0.33872 -0.22448,-0.22237 -0.47874,-3.781931 -0.56453,-7.910392 l -0.15549,-7.506299 h 6.06526 c 7.015,0 8.03003,0.436999 8.55317,3.681348 0.26361,1.63488 0.50535,1.939583 1.64209,2.07094 l 1.33309,0.1545 v -7.6103 -7.610293 l -1.3222,0.153516 c -1.06224,0.123826 -1.38614,0.475553 -1.65298,1.790658 -0.18258,0.899779 -0.66876,1.973119 -1.08054,2.384899 -0.9551,0.9551 -4.3533,1.51115 -9.45345,1.54801 l -4.0161,0.0287 v -7.05864 -7.058638 l 1.82532,-0.05447 c 5.18449,-0.15495 12.72142,0.167223 14.10836,0.603158 1.28579,0.404139 1.6736,0.865732 2.12443,2.528514 0.30334,1.118798 0.6291,2.308718 0.72399,2.643399 0.0949,0.334678 0.72763,0.60811 1.40539,0.60811 1.21946,0 1.23173,-0.04173 1.22513,-4.016104 -0.004,-2.20888 -0.13865,-4.509076 -0.30009,-5.111497 l -0.29316,-1.095388 h -15.79998 c -14.2382,0 -15.78534,-0.07707 -15.6435,-0.780446 0.17424,-0.864069 2.70654,-1.950614 9.65054,-4.142876 7.85287,-2.479194 16.64246,-3.959789 25.46339,-4.396422 z m -39.09438,11.61848 2.97716,0.27038 c 1.63743,0.148477 3.22611,0.518529 3.52982,0.822043 0.38971,0.389449 0.55166,5.337778 0.55166,16.817127 0,14.22542 -0.0969,16.363763 -0.7745,17.041963 -0.43075,0.43112 -1.99748,0.90168 -3.52883,1.05973 l -2.75531,0.28425 V 84.783619 Z m 91.88513,0.620987 c 0.76263,-0.001 4.86307,1.822513 5.47596,2.435411 0.13388,0.133872 1.87902,1.338361 3.87745,2.677078 1.99843,1.338713 4.07909,2.79956 4.62422,3.245565 0.54512,0.446 1.97734,1.615015 3.18218,2.597843 4.9838,4.065446 11.15674,10.529536 15.09085,15.802956 0.66936,0.89723 1.4407,1.87077 1.7144,2.16305 0.89884,0.95985 3.91984,5.956393 4.90945,7.736083 0.55078,0.99049 0.85238,1.3493 1.13849,1.8353 0.29189,0.49584 0.51351,1.03887 0.51351,1.18247 v 1.21721 l -20.08053,-0.0188 c -16.71798,-0.0154 -20.18302,-0.13373 -20.68962,-0.70913 -0.46544,-0.52864 -0.60812,-5.33137 -0.60812,-20.427163 0,-18.471297 0.0544,-19.736834 0.85176,-19.737848 z m -96.02306,0.41597 0.14757,20.238003 0.14658,20.238993 H 87.362748 c -18.51205,0 -20.22711,-0.0685 -20.22711,-0.80719 0,-0.80734 5.22876,-9.647783 6.83976,-11.564003 0.4698,-0.5588 2.16687,-2.65873 3.77049,-4.6668 2.97719,-3.7281 9.74944,-10.49066 13.78747,-13.766675 4.79598,-3.890935 12.755582,-9.071387 14.459962,-9.411851 z m 44.10288,39.989706 c -7.50593,0 -8.80869,0.10875 -8.80869,0.73092 0,0.47576 0.47586,0.72994 1.36677,0.72994 0.75205,0 1.79287,0.31077 2.3126,0.69031 0.86762,0.63361 0.95754,1.44088 1.09539,9.87239 0.17964,10.98819 -0.0209,11.83043 -2.81573,11.83043 -1.41704,0 -1.95903,0.20181 -1.95903,0.72993 0,0.61865 1.18965,0.73092 7.78857,0.73092 6.59892,0 7.78857,-0.11227 7.78857,-0.73092 0,-0.52096 -0.53029,-0.72993 -1.85008,-0.72993 -2.69463,0 -3.01778,-0.58017 -3.01778,-5.41358 v -4.24587 l 4.25975,0.0376 c 5.45713,0.0476 8.17752,-0.71892 10.21111,-2.87516 1.34586,-1.42703 1.59357,-2.05493 1.59357,-4.03294 0,-2.10424 -0.19245,-2.51671 -1.89267,-4.05275 -2.98647,-2.69809 -5.80256,-3.27132 -16.07235,-3.27132 z m 1.90059,2.43443 h 2.40274 c 5.34358,0 7.76391,2.61837 6.56145,7.09627 -0.1493,0.55596 -0.89149,1.37725 -1.65002,1.82532 -0.88328,0.52177 -2.44638,0.81412 -4.3469,0.81412 h -2.96727 v -4.86786 z m -89.436832,2.92071 17.82239,0.001 17.822402,0.002 10.97868,9.36927 c 6.03822,5.15333 15.74974,13.42279 21.58099,18.37604 5.83125,4.95324 11.40584,9.7175 12.38803,10.58746 0.98219,0.86995 1.9058,1.49336 2.04817,1.66092 0.33831,0.39819 0.45693,0.41472 0.4437,1.01714 -0.0174,0.79207 -1.80353,2.60197 -6.45053,6.53769 -3.53438,2.99339 -9.60214,8.14863 -13.48441,11.45605 -3.88228,3.30741 -9.24907,7.85089 -11.9265,10.09623 -2.67743,2.24533 -6.1831,5.21609 -7.78956,6.60206 -1.60646,1.38597 -3.46758,2.97877 -4.13693,3.53972 -0.66936,0.56094 -1.87484,1.58017 -2.67807,2.26506 l -1.45986,1.24494 -18.073962,0.001 c -13.88152,4.6e-4 -18.18409,-0.14075 -18.54936,-0.60811 -0.58672,-0.75071 -3.08739,-8.10424 -4.42812,-13.02189 -1.25466,-4.60196 -2.3247,-10.57865 -2.98112,-16.6547 -1.69299,-15.67081 1.02305,-33.77001 7.31812,-48.76672 z m 165.557642,0.10796 17.94718,0.13568 0.97556,2.43443 c 7.78118,19.42396 9.91324,38.97811 6.39605,58.6599 -1.23554,6.91399 -4.65639,18.43233 -6.18015,20.81046 -0.30082,0.46949 -4.66573,0.6091 -19.10596,0.6091 h -18.71574 l -5.23035,-4.53805 c -2.87681,-2.49545 -5.7782,-5.00911 -6.44756,-5.5869 -0.66936,-0.57778 -4.28381,-3.59994 -8.03221,-6.71595 -3.74841,-3.11601 -6.86765,-5.89352 -7.05468,-6.05833 -0.90968,-0.80166 -3.07034,-2.42244 -3.73087,-3.02867 -0.61493,-0.50963 -1.39696,-1.22027 -2.6018,-2.26011 -1.20485,-1.03984 -3.94313,-3.36494 -6.08507,-5.16696 -7.75838,-6.52717 -9.04095,-7.72226 -8.90278,-8.2917 0.25283,-1.04201 13.13423,-11.81121 14.27376,-12.6386 0.68139,-0.49474 0.91118,-0.76399 1.35489,-1.13699 0.37092,-0.31181 1.12055,-1.0792 2.08282,-1.84513 0.96229,-0.76594 2.54997,-2.10523 3.52883,-2.97519 0.97886,-0.86995 1.92698,-1.52602 2.0858,-1.64506 0.19055,-0.14283 0.91734,-0.65384 1.71935,-1.35884 0.79622,-0.69993 3.79257,-3.39708 6.73774,-5.9068 2.94518,-2.50973 5.5959,-4.78953 5.89095,-5.06693 0.29505,-0.2774 1.59448,-1.38128 2.88803,-2.45225 1.29356,-1.07097 3.24323,-2.76849 4.33205,-3.77247 1.08882,-1.00397 2.41791,-1.94123 2.9534,-2.08282 0.53548,-0.14158 9.04968,-0.19642 18.92076,-0.12182 z M 66.798898,131.90526 c -1.144,0.21455 -1.31177,1.01908 -1.78174,8.52147 l -0.20799,3.31193 1.75303,-0.14758 c 1.61174,-0.13599 1.78423,-0.30252 2.14918,-2.07094 0.81615,-3.95478 3.13718,-5.13626 10.09226,-5.13626 h 4.88371 v 17.22815 c 0,20.16474 0.23903,19.17697 -4.75594,19.6299 -2.71476,0.24617 -3.03362,0.3869 -3.03362,1.34299 0,0.58755 0.14979,1.21745 0.33277,1.40044 0.183,0.18301 5.82421,0.27446 12.5356,0.20303 l 12.202822,-0.12974 v -1.46085 c 0,-1.45167 -0.0182,-1.46129 -3.046502,-1.60546 -4.73461,-0.22539 -4.53455,0.65944 -4.38354,-19.37238 l 0.12776,-16.99244 5.219452,0.0485 c 4.74945,0.0439 5.39043,0.16039 7.11312,1.30041 1.48703,0.98407 2.01355,1.73118 2.45423,3.48128 0.53204,2.11294 0.64911,2.22842 2.25813,2.22842 h 1.69657 l -0.003,-2.55624 c -0.002,-1.40565 -0.14043,-4.00682 -0.30802,-5.78102 l -0.30505,-3.22576 -21.963292,-0.20897 c -12.07974,-0.11487 -22.44328,-0.11828 -23.02997,-0.009 z m 158.498012,0.58434 c -10.78289,0 -17.80762,3.5671 -21.54038,10.93906 -3.52117,6.95406 -2.02078,15.48628 3.66252,20.82531 1.35379,1.27178 2.76544,2.31161 3.13663,2.31161 0.37118,0 0.67447,0.43809 0.67447,0.97358 0,0.82525 -0.32414,0.97357 -2.12938,0.97357 -3.94127,0 -5.19256,-0.46573 -5.50964,-2.05113 -0.24166,-1.20833 -1.61848,-2.32945 -2.85931,-2.32945 -0.11644,0 -0.21096,2.84805 -0.21096,6.32871 v 6.32772 h 10.95293 c 9.93903,0 10.95292,-0.076 10.95292,-0.81907 0,-0.45041 -0.24049,-2.69663 -0.53482,-4.99165 l -0.53581,-4.1726 -2.48493,-1.21522 c -4.63003,-2.26407 -7.15471,-7.24477 -7.15471,-14.11531 0,-6.10802 2.31337,-11.41277 5.9365,-13.61613 2.53468,-1.54141 7.74792,-2.24524 11.27382,-1.52126 7.01431,1.44023 10.26613,6.25191 10.22993,15.13739 -0.0302,7.42416 -2.48641,12.01737 -7.72221,14.44016 l -1.94517,0.90028 -0.53581,4.62124 c -0.29505,2.54202 -0.44755,4.78689 -0.33872,4.9877 0.10883,0.20081 5.11387,0.36447 11.12229,0.36447 h 10.9242 v -6.08507 -6.08507 h -1.45986 c -1.11755,0 -1.46085,0.22091 -1.46085,0.93891 0,1.65893 -2.27159,2.95538 -5.17687,2.95538 -2.16964,0 -2.60863,-0.14406 -2.59387,-0.85175 0.01,-0.46855 0.97743,-1.46029 2.15116,-2.20366 2.48764,-1.57552 5.17682,-5.38778 6.36734,-9.02757 1.90405,-5.8213 -0.18107,-13.67635 -4.74802,-17.8838 -4.72113,-4.34951 -9.91852,-6.05635 -18.44339,-6.05635 z M 30.420218,145.69174 c -1.22602,0.003 -2.484392,0.30092 -3.692242,0.91712 -5.892816,3.00629 -5.855494,11.2334 0.06537,14.47086 7.015022,3.83572 14.495582,-4.37018 10.382442,-11.38871 -1.51616,-2.58714 -4.05832,-4.00577 -6.75557,-3.99927 z m 249.614582,0.0198 c -1.44728,-0.0566 -2.93587,0.31216 -4.33997,1.13501 -5.78536,3.39044 -5.49219,11.33848 0.52393,14.21632 1.71551,0.82063 2.98181,1.09854 4.28946,0.94188 5.85959,-0.70198 9.15839,-7.8235 5.84143,-12.60988 -1.60447,-2.31523 -3.9027,-3.58902 -6.31485,-3.68333 z m -124.99448,15.01264 c 0.63569,0 2.52129,1.50392 9.70006,7.73905 0.80323,0.69765 2.76453,2.36389 4.35879,3.70214 1.59425,1.33826 3.25316,2.76175 3.6863,3.16337 1.82947,1.69632 4.26611,3.7659 6.30692,5.35712 1.20013,0.93574 2.53022,2.02984 2.95637,2.43145 0.42614,0.40161 2.04932,1.82564 3.60607,3.16435 1.55675,1.33872 3.29226,2.84221 3.85764,3.34065 0.56538,0.49844 2.00118,1.70293 3.19011,2.67707 1.18893,0.97415 2.88638,2.49028 3.77246,3.36937 l 1.6114,1.59853 v 24.99493 c 0,19.41061 -0.13555,25.10379 -0.60811,25.4832 -1.18159,0.94868 -11.44929,4.53695 -16.94688,5.92265 -3.06256,0.77193 -8.27246,1.75262 -11.57688,2.17988 -5.40483,0.69885 -18.9262,0.96565 -23.19932,0.45757 -11.88541,-1.41317 -18.68918,-3.08159 -28.84367,-7.07448 l -4.98968,-1.962 v -25.17718 -25.17716 l 5.23333,-4.41822 c 2.87823,-2.43026 5.67358,-4.82264 6.21184,-5.3165 0.53826,-0.49387 2.01093,-1.72989 3.2733,-2.74641 1.26236,-1.01652 2.57832,-2.11222 2.92467,-2.43442 1.72101,-1.60101 5.27678,-4.71063 7.62615,-6.6704 5.59956,-4.671 11.57375,-9.74677 14.7551,-12.5356 1.29806,-1.13791 2.6901,-2.06896 3.09403,-2.06896 z m 0.89632,13.14371 c -7.79862,0 -9.97519,0.1355 -9.81891,0.6091 0.11044,0.33468 1.34571,0.72485 2.74541,0.86759 1.46447,0.14935 2.73709,0.56266 2.99698,0.97358 0.2484,0.39274 0.45451,4.57532 0.45856,9.29498 0.008,9.73655 0.0853,9.53784 -3.83486,10.00213 -1.36706,0.1619 -2.48593,0.48364 -2.48593,0.71409 0,0.23045 4.49063,0.41894 9.97936,0.41894 6.32847,0 9.98034,-0.17858 9.98034,-0.48728 0,-0.26774 -0.57735,-0.48629 -1.28258,-0.48629 -0.70523,0 -2.12925,-0.25441 -3.16435,-0.56453 l -1.88178,-0.56355 v -8.89386 c 0,-10.29643 0.0478,-10.42405 3.92895,-10.42405 1.80814,0 2.39976,-0.18062 2.39976,-0.73092 0,-0.62543 -1.43875,-0.72993 -10.02095,-0.72993 z m 46.40955,26.61623 c 0.2008,-0.11866 9.94845,-0.0991 21.66221,0.0416 19.1241,0.23129 21.29774,0.33795 21.29774,1.03993 0,1.7291 -9.22687,16.05098 -12.89017,20.00823 -9.218,9.95767 -15.41937,15.13933 -25.21976,21.07292 -2.0845,1.26205 -4.11028,2.29477 -4.50239,2.29477 -0.6156,0 -0.7131,-3.02037 -0.7131,-22.12077 0,-12.16651 0.16466,-22.21802 0.36547,-22.33667 z m -115.738132,0.15847 h 20.932282 v 21.66221 c 0,17.01878 -0.13005,21.65765 -0.60811,21.63843 -1.31315,-0.0528 -8.84534,-4.97019 -15.699952,-10.25072 -3.00146,-2.3122 -12.7785,-12.49902 -15.6019,-16.25557 -4.64358,-6.1783 -9.95559,-14.83936 -9.95559,-16.23279 0,-0.41572 5.44147,-0.56156 20.93327,-0.56156 z m 38.076252,0.53481 c -0.48129,0.0647 -0.31589,0.25594 0.13767,0.62198 1.08212,0.87334 8.31084,6.17438 13.01693,9.54556 1.6763,1.20081 3.26702,2.35935 3.53477,2.57506 0.26774,0.2157 3.38922,2.48058 6.93682,5.03325 3.54759,2.55267 6.45053,4.9027 6.45053,5.22144 0,0.31874 -1.43683,1.45266 -3.19209,2.5196 -1.75525,1.06693 -3.45271,2.16949 -3.77246,2.45027 -0.31975,0.28077 -1.89563,1.2517 -3.50209,2.1581 -1.60645,0.90638 -3.03048,1.77182 -3.16435,1.92337 -0.13388,0.15155 -0.68173,0.53366 -1.21722,0.84878 -2.66101,1.56591 -10.73993,6.70218 -10.95292,6.96356 -0.13387,0.16428 -1.33836,0.94581 -2.67707,1.73618 l -2.43442,1.43709 29.45176,0.24364 c 16.19846,0.13387 29.67131,0.22659 29.93906,0.206 0.26774,-0.0206 0.72985,-1.00953 1.02804,-2.19672 0.2982,-1.18719 1.13633,-3.58014 1.86197,-5.31751 1.87738,-4.4949 1.86135,-4.64961 -0.45658,-4.45485 -1.44051,0.12103 -2.23414,0.52327 -3.05046,1.54701 -0.6069,0.76112 -1.92116,1.89218 -2.92071,2.51366 -1.7771,1.10495 -2.13007,1.13304 -15.93468,1.26673 -7.76455,0.0752 -15.3799,-0.0346 -16.92311,-0.24364 l -2.80582,-0.37932 2.21653,-1.70449 c 1.21954,-0.93711 2.52151,-1.97694 2.89298,-2.31162 0.37148,-0.33468 0.80331,-0.6091 0.95872,-0.6091 0.15542,0 2.08696,-1.17096 4.29342,-2.60279 2.20645,-1.43184 5.94044,-3.82228 8.29764,-5.31156 3.36138,-2.12374 4.14949,-2.8264 3.65164,-3.25943 -1.25492,-1.09153 -19.63423,-14.25804 -20.22909,-14.49166 -0.33468,-0.13143 -0.60812,-0.65392 -0.60812,-1.16076 0,-0.87963 0.53636,-0.92005 11.80468,-0.89236 15.19117,0.0373 16.02402,0.1744 18.68504,3.07225 1.68061,1.83017 2.37984,2.25318 3.71998,2.25318 h 1.65002 l -0.18125,-2.7989 c -0.10008,-1.53952 -0.29297,-3.5114 -0.42786,-4.38156 l -0.24463,-1.58168 h -23.75692 c -13.06614,0 -25.81684,-0.13547 -28.33459,-0.30109 -2.13252,-0.14027 -3.26048,-0.20238 -3.74176,-0.13767 z m -68.232202,10.93312 c -0.044,-0.002 -0.0828,0.007 -0.11588,0.0277 -0.31063,0.19199 -0.29218,0.4856 0.0475,0.82699 0.29107,0.29107 0.5289,1.08711 0.52788,1.76986 -10e-4,1.07317 -0.99831,1.86182 -7.35477,5.82162 -7.66623,4.77569 -9.68223,5.65225 -9.68223,4.20726 0,-0.45043 0.23145,-1.25078 0.51402,-1.77878 1.14056,-2.13115 -0.9294,-3.93734 -2.91675,-2.54535 -1.59044,1.11399 -1.2681,2.97561 0.87849,5.07981 3.38579,3.31889 5.55341,3.09865 12.2355,-1.24594 8.0268,-5.21879 9.42689,-5.63568 10.84696,-3.2317 1.58798,2.68824 1.60032,2.6703 -7.92327,10.46861 -3.6127,2.95824 -5.49064,4.18151 -6.42082,4.18151 -0.72315,0 -1.45087,-0.21855 -1.61634,-0.48629 -0.16548,-0.26775 -0.50543,-0.48728 -0.75568,-0.48728 -0.38297,0 5.53526,7.35457 8.39866,10.43692 0.48247,0.51937 1.36979,1.66783 1.9719,2.55228 0.60212,0.88446 1.20516,1.60987 1.33903,1.61139 0.48595,0.006 4.83216,-1.74603 5.16993,-2.08381 0.1908,-0.1908 -0.621,-0.34809 -1.80353,-0.34961 -2.51147,-0.004 -4.39522,-0.87375 -6.00683,-2.77414 -0.6348,-0.74856 -1.61483,-1.8871 -2.1779,-2.53049 -1.25716,-1.43648 -1.3038,-2.69832 -0.14064,-3.82001 2.12441,-2.04865 4.97108,-4.01383 5.782,-3.99233 0.48425,0.0128 1.70176,1.05179 2.7058,2.30963 1.85459,2.32341 2.31344,4.28664 1.24989,5.35019 -0.3168,0.31682 -0.43746,0.71536 -0.2674,0.88542 0.25931,0.25931 5.71069,-3.99801 5.71069,-4.45981 0,-5.1e-4 -5e-5,-0.003 0,-0.003 v -0.001 l -0.002,-0.004 -10e-4,-0.001 c -0.0629,-0.069 -0.76206,-0.0201 -1.60644,0.11687 -1.46311,0.23743 -1.81789,0.0256 -3.89429,-2.31953 -1.25653,-1.41914 -2.28487,-2.94816 -2.28487,-3.39809 0,-0.44993 0.82129,-1.4345 1.82532,-2.18881 1.00404,-0.7543 2.18067,-1.76689 2.61369,-2.24921 1.27524,-1.42042 2.06358,-1.04912 4.65987,2.19078 3.00808,3.75376 3.35005,4.7189 2.3542,6.64465 -1.01425,1.96136 -0.34425,1.88005 1.67379,-0.20204 l 1.63417,-1.68568 -1.90356,-2.09174 c -1.04711,-1.15057 -2.56119,-2.93839 -3.36442,-3.97253 -0.80323,-1.03414 -2.18442,-2.71294 -3.06927,-3.73087 -1.38568,-1.59407 -3.40467,-4.69297 -7.51621,-11.53726 -0.45718,-0.76105 -1.00738,-1.2985 -1.31526,-1.31131 z m 202.529582,3.11682 c -4.18789,0.0139 -8.07325,3.24261 -12.94562,10.38344 -1.60606,2.35378 -3.20715,4.68782 -3.55755,5.18676 -0.41024,0.58416 -0.46173,1.01589 -0.14559,1.21128 0.27003,0.16688 0.72853,-0.14139 1.01913,-0.68437 0.90125,-1.684 2.69758,-1.17111 7.20918,2.05608 2.3394,1.67339 5.23144,3.69917 6.42676,4.5024 4.29984,2.88939 4.43907,3.13698 3.16039,5.60967 -1.4669,2.83669 0.47167,0.96358 3.65659,-3.53279 4.45506,-6.28949 6.76156,-10.84423 6.79123,-13.41111 0.0463,-4.00543 -3.04171,-8.37196 -7.27752,-10.28936 -1.51085,-0.6839 -2.94104,-1.03666 -4.337,-1.032 z m -2.7355,3.95668 c 0.39985,-0.007 0.84486,0.0169 1.3727,0.0634 3.20376,0.2819 6.61375,2.30693 8.32438,4.94511 2.15213,3.31908 1.61586,8.30722 -1.27564,11.86509 -0.27199,0.33468 -1.07032,0.60119 -1.77383,0.59227 -1.12479,-0.0143 -1.97924,-0.49432 -4.30134,-2.41759 -0.32338,-0.26784 -0.79805,-0.48728 -1.05478,-0.48728 -0.25674,0 -0.53966,-0.16814 -0.62891,-0.37437 -0.0892,-0.20624 -2.07943,-1.67012 -4.42218,-3.2525 -3.07573,-2.07746 -4.25974,-3.1595 -4.25974,-3.8933 0,-1.63166 2.26699,-4.5111 4.65195,-5.90878 1.37788,-0.80747 2.16784,-1.10968 3.36739,-1.13203 z m -15.63558,16.54477 c -0.88368,-0.0115 -1.82833,0.24233 -2.90388,0.75271 -1.75503,0.83281 -10.89845,9.30152 -10.89845,10.09424 0,0.25532 0.39976,0.10142 0.88939,-0.34169 0.48963,-0.44311 1.31191,-0.80762 1.82631,-0.81016 0.56762,-0.003 3.36753,2.53324 7.12302,6.45054 4.73666,4.94074 6.19248,6.76205 6.20688,7.7648 0.0104,0.72049 -0.20072,1.44493 -0.46846,1.6104 -0.26774,0.16547 -0.48629,0.55641 -0.48629,0.86859 0,0.31218 1.63654,-1.05862 3.63678,-3.04551 2.00024,-1.98689 3.52959,-3.71921 3.39908,-3.84972 -0.1305,-0.13049 -0.4963,0.0219 -0.81313,0.33872 -1.11135,1.11136 -2.56429,0.55355 -5.11248,-1.96298 -2.5356,-2.5041 -2.9508,-3.4096 -2.14622,-4.6787 0.3384,-0.53376 1.59893,-0.49907 7.25078,0.1971 l 6.84174,0.84284 2.3552,-2.33737 c 1.3231,-1.31226 1.92937,-2.17525 1.3826,-1.96893 -2.90166,1.09492 -4.17624,1.18295 -8.76808,0.60514 l -4.86192,-0.61207 0.13569,-1.44798 c 0.49632,-5.27035 0.42926,-5.62632 -1.33507,-7.09924 -1.08258,-0.90378 -2.11733,-1.35602 -3.25349,-1.37073 z m -2.51762,2.9633 c 1.0588,0.006 2.19352,0.49254 3.30797,1.43114 1.67858,1.41373 1.62796,4.04157 -0.12876,6.69615 -0.734,1.10916 -1.67446,2.01647 -2.08976,2.01647 -1.13398,0 -6.04644,-5.0459 -6.04644,-6.21085 0,-1.07412 2.26106,-3.24967 3.92697,-3.77841 0.33261,-0.10556 0.67709,-0.15667 1.03002,-0.1545 z m -161.842622,0.48332 c -1.15113,0.005 -2.27795,0.33599 -3.29212,1.02012 -2.03059,1.36979 -2.72952,3.67876 -1.94912,6.44162 0.5365,1.89941 0.78161,2.56987 1.87088,5.12041 2.07878,4.86745 1.92118,7.1374 -0.55562,8.00844 -1.78092,0.62632 -4.45576,-0.75791 -6.06922,-3.14058 -1.16829,-1.72527 -1.26138,-3.89324 -0.31396,-7.30228 0.25766,-0.92714 -0.30868,-0.52162 -2.37797,1.70349 -1.49396,1.60646 -2.65369,3.14026 -2.57704,3.408 0.0767,0.26774 0.68436,0.552 1.34993,0.63188 0.71211,0.0855 1.54245,0.70854 2.01845,1.51434 0.44489,0.75313 1.61965,2.15716 2.61071,3.11978 4.20326,4.08262 10.56187,2.90716 11.23024,-2.07589 0.24436,-1.82183 -1.15198,-7.02347 -2.29378,-8.54525 -0.20089,-0.26774 -0.657,-1.65073 -1.01418,-3.07323 -0.73998,-2.94709 -0.39324,-3.92299 1.63615,-4.59946 3.91577,-1.30526 7.61705,4.71782 5.46112,8.88693 -1.11457,2.15511 -0.093,2.15028 1.50245,-0.006 1.63736,-2.21354 3.68641,-2.6362 4.59054,-0.94683 0.65916,1.23166 0.30557,2.38701 -1.69855,5.54134 -6.26158,9.8552 -6.77388,12.77777 -2.91279,16.63886 4.67937,4.67936 10.41606,5.67643 13.83204,2.40371 0.732942,-0.70221 2.806072,-3.77394 4.607382,-6.82589 1.8013,-3.05195 3.58408,-5.8054 3.96163,-6.11874 0.92254,-0.76564 3.13365,-0.16675 3.13365,0.84878 0,0.44237 -0.3832,1.22796 -0.85175,1.74609 -0.57693,0.63798 -0.84062,1.6988 -0.81709,3.28617 0.0366,2.46569 1.08377,4.28093 4.38355,7.59545 2.54574,2.5571 3.614,4.37844 3.614,6.16231 0,1.34481 -0.22565,1.75368 -1.09539,1.98676 -2.35456,0.631 -4.56541,0.30124 -6.23462,-0.92999 -1.9696,-1.45281 -2.32598,-2.19626 -2.37203,-4.94114 -0.0301,-1.79709 -0.68674,-3.0689 -1.27862,-2.47702 -0.51275,0.51275 -2.6339,7.01025 -2.44828,7.49937 0.11589,0.30556 0.76837,0.44168 1.47273,0.30703 0.86196,-0.16477 1.9105,0.18504 3.29212,1.09935 1.11494,0.73784 2.58907,1.5119 3.27627,1.72034 2.30052,0.69781 5.57156,0.4962 6.97743,-0.43082 2.09953,-1.38443 2.75938,-2.5736 2.77611,-5.00355 0.0173,-2.52023 -0.52255,-3.40188 -4.79556,-7.83413 -2.86102,-2.96765 -3.9072,-4.51673 -3.93489,-5.82756 -0.0502,-2.37801 3.88277,-3.13596 6.60207,-1.27267 1.72439,1.18157 2.90141,3.94303 2.52355,5.91967 -0.14461,0.75648 0.013,1.32844 0.40706,1.47967 0.7715,0.29605 0.94171,0.0448 1.39252,-2.05609 0.19059,-0.8882 0.65232,-2.20246 1.02705,-2.92072 1.09359,-2.09613 0.90637,-3.08383 -0.51699,-2.72659 -0.8736,0.21926 -1.9093,-0.13879 -3.77247,-1.30338 -2.14109,-1.3383 -3.05042,-1.60811 -5.46507,-1.62327 -2.21192,-0.0139 -3.14701,-0.25065 -3.95767,-1.00032 -1.5016,-1.3886 -7.04232,-4.28727 -7.42806,-3.88636 -0.17694,0.18389 0.17108,0.66563 0.77351,1.07063 1.4154,0.95157 1.38357,2.1276 -0.12183,4.5123 -0.66935,1.06033 -1.21721,2.04378 -1.21721,2.18583 0,0.14206 -1.20125,2.20106 -2.67014,4.57569 -2.735592,4.42241 -3.357732,4.90107 -6.384172,4.9144 -3.92825,0.0173 -7.4964,-2.75943 -7.4964,-5.83449 0,-1.73966 1.51916,-5.08801 4.66779,-10.28638 0.91316,-1.50761 1.66092,-2.94956 1.66092,-3.20397 0,-0.89267 2.28797,-1.7097 3.83585,-1.36974 0.83498,0.1834 1.51829,0.21614 1.51829,0.0733 0,-0.14284 -2.0589,-1.48814 -4.57568,-2.99004 -2.53255,-1.5113 -4.6825,-3.13744 -4.81438,-3.64173 -0.1632,-0.62411 -0.53887,-0.83324 -1.19146,-0.66259 -0.73412,0.19198 -1.31222,-0.31167 -2.52059,-2.19474 -1.8109,-2.82205 -4.45879,-4.38257 -6.99129,-4.37067 z m 147.498542,10.15862 c -4.87431,-0.0185 -9.50994,3.06706 -11.64324,7.74994 -0.78625,1.72595 -0.9412,2.82019 -0.74479,5.26699 0.39981,4.98083 3.47345,8.91784 8.38876,10.74692 4.61921,1.7189 11.73225,-1.70766 14.49066,-6.98039 1.56905,-2.99926 1.44004,-7.65899 -0.29415,-10.61817 -2.53283,-4.32195 -5.55372,-6.14765 -10.19724,-6.16529 z m -1.95309,2.11551 c 0.91099,-0.0101 1.79825,0.13763 2.582,0.47044 3.90726,1.65924 7.77202,7.77559 7.78064,12.31474 0.005,2.26765 -0.17494,2.67771 -1.93822,4.44099 -1.07043,1.07043 -2.62775,2.08009 -3.46842,2.24823 -2.33808,0.46761 -2.94658,0.38411 -5.14516,-0.70418 -2.02277,-1.00125 -5.17155,-4.66302 -6.37328,-7.41123 -0.73092,-1.6715 -0.77932,-6.22193 -0.0822,-7.75192 0.96929,-2.12736 3.91171,-3.57685 6.64465,-3.60707 z m 34.60883,3.91607 c 0.0412,0.0403 0.0355,0.0402 0.14163,0.0367 0.0154,-5.1e-4 0.0306,-0.001 0.0455,-0.002 -0.0595,-0.0146 -0.12055,-0.0205 -0.18718,-0.0347 z m -58.4945,6.41884 c -0.0304,-10e-4 -0.0622,-5e-4 -0.0961,0.001 -0.59586,0.0302 -1.73853,0.45572 -3.85864,1.39449 -0.80725,0.35744 -2.61556,1.14786 -4.01907,1.75698 -2.80097,1.21563 -2.91911,1.71656 -0.35357,1.49552 1.61896,-0.13948 1.70823,-0.0516 3.13761,3.06928 0.80931,1.76702 1.47174,3.29677 1.47174,3.40007 0,0.1033 0.7426,1.79558 1.65003,3.76058 0.90743,1.96501 1.94538,4.41735 2.30665,5.44922 0.63491,1.81346 0.61212,1.91107 -0.67644,2.93854 -0.73321,0.58464 -1.3331,1.2196 -1.3331,1.41035 0,0.74554 0.57014,0.54736 7.58158,-2.63152 1.0908,-0.49455 2.84314,-1.20359 3.89429,-1.57574 1.05114,-0.37213 2.95132,-1.1667 4.2231,-1.76589 l 2.3126,-1.08945 v -3.35451 c 0,-2.65683 -0.15151,-3.35353 -0.72993,-3.35353 -0.49182,0 -0.72993,0.49142 -0.72993,1.50641 0,2.26788 -1.73912,4.27836 -5.06198,5.85035 -3.21905,1.52288 -4.78202,1.74901 -5.50469,0.79727 -0.25412,-0.33468 -1.52303,-3.12784 -2.82068,-6.20688 -1.29765,-3.07905 -2.53086,-5.82881 -2.74046,-6.10983 -0.2096,-0.28103 -0.52599,-1.41173 -0.7022,-2.51366 -0.30179,-1.88725 -0.2308,-2.04968 1.21226,-2.79592 0.84258,-0.43571 1.40695,-0.99389 1.25485,-1.24 -0.0748,-0.12106 -0.20516,-0.18751 -0.41795,-0.19312 z m -27.99191,6.51887 c -0.16083,0.0104 -0.41482,0.15829 -0.64773,0.39121 -0.39038,0.39038 -1.86936,0.47186 -4.79159,0.26444 -4.81768,-0.34197 -6.59147,0.31287 -8.29171,3.05838 -2.36901,3.82545 -0.63808,6.5852 6.29504,10.04076 5.30451,2.64384 6.69681,3.9686 6.21085,5.90482 -0.41007,1.63385 -3.24973,2.90195 -5.6067,2.50375 -2.89307,-0.48879 -4.63433,-1.8113 -5.38683,-4.09138 -0.73194,-2.2178 -1.73999,-2.44373 -1.69162,-0.37933 0.0167,0.71398 0.0716,2.61169 0.12182,4.21815 0.0502,1.60646 0.21643,2.92171 0.36943,2.92171 0.15299,0 0.61229,-0.33499 1.02111,-0.7438 0.55659,-0.55659 1.19042,-0.64865 2.52158,-0.36546 3.5993,0.76573 7.48968,0.41098 9.40689,-0.8577 3.17321,-2.0998 4.09158,-4.87346 2.58002,-7.79649 -0.85746,-1.65814 -3.04664,-3.13767 -7.53206,-5.09268 -3.97323,-1.73177 -5.35513,-2.93802 -5.35513,-4.67373 0,-1.72198 1.58721,-2.86328 3.98044,-2.86328 2.83175,0 4.20898,0.89016 5.40268,3.49218 1.72514,3.76045 2.49501,3.1426 2.07689,-1.66685 -0.19204,-2.20888 -0.44286,-4.11105 -0.5576,-4.22707 -0.0287,-0.029 -0.0722,-0.0411 -0.12578,-0.0376 z m -23.43108,0.59721 c -4.54782,-0.11685 -5.35712,-0.0243 -5.35712,0.60911 0,0.46851 0.44695,0.74577 1.20037,0.74577 0.68807,0 1.41453,0.40192 1.70351,0.94188 0.74003,1.38275 0.66884,18.1707 -0.0802,18.91977 -0.32129,0.32129 -1.08769,0.58434 -1.7035,0.58434 -1.10667,0 -1.4403,0.49199 -0.78044,1.15185 0.18701,0.18701 2.63402,0.2775 5.43734,0.20204 5.24894,-0.14128 6.7342,-0.76556 3.84377,-1.61635 l -1.58861,-0.46747 v -9.73175 -9.73076 l 1.43312,-0.24859 c 3.11365,-0.53933 1.03466,-1.22769 -4.10821,-1.35984 z m -1.31229,32.50322 c 0.11739,0.0261 0.23532,0.05 0.35357,0.0723 0.0712,-0.002 0.14182,-0.005 0.21294,-0.007 -0.0547,-0.007 -0.10968,-0.0132 -0.16441,-0.0198 -0.13405,-0.018 -0.26783,-0.0328 -0.4021,-0.0456 z" />
    <circle
       style="display:inline;fill:none;fill-opacity:1;stroke:#0d67d9;stroke-width:10.2047;stroke-linejoin:round;stroke-dasharray:none;stroke-opacity:1"
       id="path5"
       cx="155"
       cy="155"
       r="145.49608" />
  </g>
</svg>
